<svg width="5" height="9" viewBox="0 0 5 9" fill="none" xmlns="http://www.w3.org/2000/svg">
<path d="M4.08 2.84H2.976V1.688C2.976 1.544 2.952 1.452 2.904 1.412C2.864 1.364 2.772 1.34 2.628 1.34H2.016C1.872 1.34 1.776 1.364 1.728 1.412C1.68 1.452 1.656 1.544 1.656 1.688V6.812C1.656 6.956 1.68 7.052 1.728 7.1C1.776 7.14 1.872 7.16 2.016 7.16H2.628C2.772 7.16 2.864 7.14 2.904 7.1C2.952 7.052 2.976 6.956 2.976 6.812V5.672H4.08V6.944C4.08 7.656 3.704 8.012 2.952 8.012H1.68C0.936 8.012 0.564 7.656 0.564 6.944V1.544C0.564 0.839999 0.936 0.487999 1.68 0.487999H2.952C3.704 0.487999 4.08 0.839999 4.08 1.544V2.84Z" fill="#00BFA5"/>
</svg>
