<svg width="38" height="9" viewBox="0 0 38 9" fill="none" xmlns="http://www.w3.org/2000/svg">
<path d="M1.704 5.964V9H0.624V1.488H3.084C3.828 1.488 4.2 1.84 4.2 2.544V4.896C4.2 5.504 3.932 5.852 3.396 5.94L4.584 9H3.42L2.292 5.964H1.704ZM1.704 2.364V5.1H2.76C2.904 5.1 3 5.08 3.048 5.04C3.096 4.992 3.12 4.896 3.12 4.752V2.712C3.12 2.568 3.096 2.476 3.048 2.436C3 2.388 2.904 2.364 2.76 2.364H1.704ZM6.37781 3.144H7.55381C8.30581 3.144 8.68181 3.5 8.68181 4.212V6.408H6.31781V7.8C6.31781 7.936 6.34181 8.028 6.38981 8.076C6.43781 8.124 6.53381 8.148 6.67781 8.148H7.22981C7.37381 8.148 7.46981 8.124 7.51781 8.076C7.56581 8.028 7.58981 7.932 7.58981 7.788V7.308H8.64581V7.944C8.64581 8.648 8.27381 9 7.52981 9H6.37781C5.63381 9 5.26181 8.648 5.26181 7.944V4.212C5.26181 3.5 5.63381 3.144 6.37781 3.144ZM6.31781 5.616H7.61381V4.344C7.61381 4.208 7.58981 4.116 7.54181 4.068C7.50181 4.02 7.40981 3.996 7.26581 3.996H6.67781C6.53381 3.996 6.43781 4.02 6.38981 4.068C6.34181 4.116 6.31781 4.208 6.31781 4.344V5.616ZM11.794 3.144H12.874V9H11.794V8.532C11.69 8.844 11.442 9 11.05 9H10.618C9.89803 9 9.53803 8.648 9.53803 7.944V4.212C9.53803 3.5 9.89803 3.144 10.618 3.144H11.05C11.442 3.144 11.69 3.3 11.794 3.612V3.144ZM10.978 8.124H11.398C11.542 8.124 11.642 8.092 11.698 8.028C11.762 7.964 11.794 7.856 11.794 7.704V4.44C11.794 4.288 11.762 4.18 11.698 4.116C11.642 4.052 11.542 4.02 11.398 4.02H10.978C10.834 4.02 10.738 4.044 10.69 4.092C10.642 4.132 10.618 4.224 10.618 4.368V7.776C10.618 7.92 10.642 8.016 10.69 8.064C10.738 8.104 10.834 8.124 10.978 8.124ZM15.0143 9H13.9343V0.972H15.0143V9ZM23.3694 1.488H24.4614L23.2614 9H21.7614L20.9214 3.36L20.0934 9H18.5934L17.3934 1.488H18.5094L19.3494 8.016L20.3214 1.488H21.5214L22.4934 8.016L23.3694 1.488ZM26.1579 3.144H27.4419C28.1859 3.144 28.5579 3.5 28.5579 4.212V7.944C28.5579 8.648 28.1859 9 27.4419 9H26.1579C25.4219 9 25.0539 8.648 25.0539 7.944V4.212C25.0539 3.5 25.4219 3.144 26.1579 3.144ZM27.4899 7.788V4.356C27.4899 4.212 27.4659 4.116 27.4179 4.068C27.3699 4.02 27.2739 3.996 27.1299 3.996H26.4699C26.3259 3.996 26.2299 4.02 26.1819 4.068C26.1419 4.116 26.1219 4.212 26.1219 4.356V7.788C26.1219 7.932 26.1419 8.028 26.1819 8.076C26.2299 8.124 26.3259 8.148 26.4699 8.148H27.1299C27.2739 8.148 27.3699 8.124 27.4179 8.076C27.4659 8.028 27.4899 7.932 27.4899 7.788ZM31.5833 3.132H31.8233V4.068H31.3913C30.8873 4.068 30.6353 4.364 30.6353 4.956V9H29.5553V3.144H30.6353V3.864C30.6993 3.656 30.8113 3.484 30.9713 3.348C31.1393 3.204 31.3433 3.132 31.5833 3.132ZM33.4947 9H32.4147V0.972H33.4947V9ZM36.7315 0.972H37.8115V9H36.7315V8.532C36.6275 8.844 36.3795 9 35.9875 9H35.5555C34.8355 9 34.4755 8.648 34.4755 7.944V4.2C34.4755 3.488 34.8355 3.132 35.5555 3.132H35.9875C36.3795 3.132 36.6275 3.288 36.7315 3.6V0.972ZM35.9155 8.124H36.3355C36.4795 8.124 36.5795 8.092 36.6355 8.028C36.6995 7.964 36.7315 7.856 36.7315 7.704V4.428C36.7315 4.276 36.6995 4.168 36.6355 4.104C36.5795 4.04 36.4795 4.008 36.3355 4.008H35.9155C35.7715 4.008 35.6755 4.032 35.6275 4.08C35.5795 4.128 35.5555 4.22 35.5555 4.356V7.776C35.5555 7.92 35.5795 8.016 35.6275 8.064C35.6755 8.104 35.7715 8.124 35.9155 8.124Z" fill="black"/>
</svg>
