<svg width="27" height="10" viewBox="0 0 27 10" fill="none" xmlns="http://www.w3.org/2000/svg">
<path d="M4.08 3.84H2.976V2.688C2.976 2.544 2.952 2.452 2.904 2.412C2.864 2.364 2.772 2.34 2.628 2.34H2.016C1.872 2.34 1.776 2.364 1.728 2.412C1.68 2.452 1.656 2.544 1.656 2.688V7.812C1.656 7.956 1.68 8.052 1.728 8.1C1.776 8.14 1.872 8.16 2.016 8.16H2.628C2.772 8.16 2.864 8.14 2.904 8.1C2.952 8.052 2.976 7.956 2.976 7.812V6.672H4.08V7.944C4.08 8.656 3.704 9.012 2.952 9.012H1.68C0.936 9.012 0.564 8.656 0.564 7.944V2.544C0.564 1.84 0.936 1.488 1.68 1.488H2.952C3.704 1.488 4.08 1.84 4.08 2.544V3.84Z" fill="#00BFA5"/>
<path d="M6.09544 3.144H7.37944C8.12344 3.144 8.49544 3.5 8.49544 4.212V7.944C8.49544 8.648 8.12344 9 7.37944 9H6.09544C5.35944 9 4.99144 8.648 4.99144 7.944V4.212C4.99144 3.5 5.35944 3.144 6.09544 3.144ZM7.42744 7.788V4.356C7.42744 4.212 7.40344 4.116 7.35544 4.068C7.30744 4.02 7.21144 3.996 7.06744 3.996H6.40744C6.26344 3.996 6.16744 4.02 6.11944 4.068C6.07944 4.116 6.05944 4.212 6.05944 4.356V7.788C6.05944 7.932 6.07944 8.028 6.11944 8.076C6.16744 8.124 6.26344 8.148 6.40744 8.148H7.06744C7.21144 8.148 7.30744 8.124 7.35544 8.076C7.40344 8.028 7.42744 7.932 7.42744 7.788ZM11.3168 3.144H11.7368C12.4648 3.144 12.8288 3.5 12.8288 4.212V9H11.7488V4.368C11.7488 4.224 11.7248 4.132 11.6768 4.092C11.6288 4.044 11.5328 4.02 11.3888 4.02H10.9688C10.8248 4.02 10.7208 4.052 10.6568 4.116C10.6008 4.18 10.5728 4.288 10.5728 4.44V9H9.49284V3.144H10.5728V3.612C10.6768 3.3 10.9248 3.144 11.3168 3.144ZM16.0597 0.972H17.1397V9H16.0597V8.532C15.9557 8.844 15.7077 9 15.3157 9H14.8837C14.1637 9 13.8037 8.648 13.8037 7.944V4.2C13.8037 3.488 14.1637 3.132 14.8837 3.132H15.3157C15.7077 3.132 15.9557 3.288 16.0597 3.6V0.972ZM15.2437 8.124H15.6637C15.8077 8.124 15.9077 8.092 15.9637 8.028C16.0277 7.964 16.0597 7.856 16.0597 7.704V4.428C16.0597 4.276 16.0277 4.168 15.9637 4.104C15.9077 4.04 15.8077 4.008 15.6637 4.008H15.2437C15.0997 4.008 15.0037 4.032 14.9557 4.08C14.9077 4.128 14.8837 4.22 14.8837 4.356V7.776C14.8837 7.92 14.9077 8.016 14.9557 8.064C15.0037 8.104 15.0997 8.124 15.2437 8.124ZM20.4439 3.144H21.5239V9H20.4439V8.532C20.3399 8.844 20.0919 9 19.6999 9H19.2679C18.5479 9 18.1879 8.648 18.1879 7.944V3.144H19.2679V7.776C19.2679 7.92 19.2919 8.016 19.3399 8.064C19.3879 8.104 19.4839 8.124 19.6279 8.124H20.0479C20.1919 8.124 20.2919 8.092 20.3479 8.028C20.4119 7.964 20.4439 7.856 20.4439 7.704V3.144ZM22.5587 2.028V0.96H23.6867V2.028H22.5587ZM23.6627 9H22.5827V3.144H23.6627V9ZM26.6955 4.02H25.8915V7.728C25.8915 7.872 25.9115 7.968 25.9515 8.016C25.9995 8.056 26.0955 8.076 26.2395 8.076H26.6955V9H25.9275C25.1755 9 24.7995 8.648 24.7995 7.944V4.02H24.2475V3.144H24.7995V2.148H25.8915V3.144H26.6955V4.02Z" fill="black"/>
</svg>
